<svg xmlns="http://www.w3.org/2000/svg" viewBox="0 0 96 96" fill="none">
  <!-- Lightbulb glass -->
  <path d="M48 12 a 22 22 0 0 0 -22 22 c 0 11 6 18 11 23 c 3 3 3 6 3 9 H 56 c 0 -3 0 -6 3 -9 c 5 -5 11 -12 11 -23 a 22 22 0 0 0 -22 -22 Z"
    fill="currentColor" fill-opacity="0.92"/>
  <!-- Filament glow inside -->
  <path d="M40 38 Q 48 30 56 38 M 44 46 L 52 46" stroke="white" stroke-width="2.5" stroke-linecap="round" fill="none" stroke-opacity="0.85"/>
  <!-- Bulb base / threads -->
  <rect x="38" y="68" width="20" height="6" rx="2" fill="currentColor" fill-opacity="0.7"/>
  <rect x="40" y="76" width="16" height="5" rx="2" fill="currentColor" fill-opacity="0.55"/>
  <!-- Cap -->
  <rect x="42" y="83" width="12" height="5" rx="2.5" fill="currentColor" fill-opacity="0.7"/>
  <!-- Sparkle accents around bulb -->
  <path d="M14 30 L 18 30 M 16 26 L 16 34" stroke="currentColor" stroke-width="2.2" stroke-linecap="round" stroke-opacity="0.65"/>
  <path d="M78 22 L 84 22 M 81 19 L 81 25" stroke="currentColor" stroke-width="2.2" stroke-linecap="round" stroke-opacity="0.65"/>
  <circle cx="84" cy="48" r="2.2" fill="currentColor" fill-opacity="0.5"/>
  <circle cx="10" cy="50" r="2" fill="currentColor" fill-opacity="0.45"/>
</svg>
